<?xml version="1.0" standalone="no"?>
<!DOCTYPE svg PUBLIC "-//W3C//DTD SVG 20010904//EN"
 "http://www.w3.org/TR/2001/REC-SVG-20010904/DTD/svg10.dtd">
<svg version="1.0" xmlns="http://www.w3.org/2000/svg"
 width="560.000000pt" height="560.000000pt" viewBox="0 0 560.000000 560.000000"
 preserveAspectRatio="xMidYMid meet">
<metadata>
Created by potrace 1.14, written by Peter Selinger 2001-2017
</metadata>
<g transform="translate(0.000000,560.000000) scale(0.100000,-0.100000)"
fill="#000000" stroke="none">
<path d="M3729 4986 c-150 -43 -302 -180 -374 -336 -16 -36 -30 -66 -31 -68
-1 -2 -49 6 -106 17 -160 31 -162 32 -353 35 -161 3 -280 -5 -400 -28 -541
-103 -1009 -421 -1311 -891 -37 -58 -73 -105 -80 -105 -7 0 -67 -16 -134 -35
-390 -112 -520 -293 -368 -512 48 -70 108 -127 195 -184 l77 -50 2 -192 c2
-294 45 -515 149 -763 l42 -101 -46 -12 c-129 -33 -452 -138 -465 -151 -5 -5
15 -3 45 5 30 8 95 21 144 29 50 9 101 18 115 21 145 26 286 48 440 69 198 27
244 33 435 51 44 4 94 9 110 11 17 1 71 6 120 9 50 4 110 8 135 10 234 20
1029 27 1305 12 255 -14 438 -27 590 -42 28 -3 73 -8 100 -11 28 -2 66 -7 85
-9 19 -3 53 -7 75 -9 76 -10 210 -27 235 -31 163 -26 229 -36 250 -40 14 -2
43 -7 65 -10 22 -4 85 -15 140 -25 55 -11 111 -21 125 -24 14 -3 41 -8 60 -12
98 -20 -65 38 -322 115 l-157 46 33 75 c62 141 124 358 141 495 4 28 9 64 12
80 9 48 11 335 3 400 -4 33 -11 85 -14 115 -22 176 -111 446 -207 631 -48 90
-50 98 -40 135 47 176 22 470 -56 664 -114 283 -324 529 -514 601 -67 26 -188
33 -250 15z m142 -232 c45 -41 4 -121 -56 -110 -58 12 -75 78 -30 115 29 22
58 20 86 -5z m-51 -300 c-40 -42 -54 -46 -102 -25 -29 13 -38 21 -28 25 21 8
89 22 125 24 l29 3 -24 -27z m-2790 -966 c-41 -86 -101 -245 -116 -307 -2 -9
-11 -46 -19 -83 l-17 -68 -42 29 c-63 44 -116 101 -138 149 -52 114 21 214
227 316 105 52 132 63 147 65 4 1 -15 -45 -42 -101z"/>
<path d="M801 1135 c-17 -22 -18 -41 -16 -217 2 -202 4 -218 28 -265 33 -62
93 -92 194 -94 97 -3 145 8 186 42 67 55 70 70 75 304 4 245 2 250 -74 246
-35 -2 -42 -44 -43 -234 -1 -238 -15 -267 -130 -267 -60 0 -96 26 -111 78 -5
20 -10 116 -10 213 0 189 -4 204 -52 213 -21 3 -32 -1 -47 -19z"/>
<path d="M2450 1145 c-60 -16 -87 -33 -112 -73 -40 -64 -21 -157 40 -201 16
-11 76 -34 133 -50 107 -31 139 -53 138 -96 0 -41 -44 -76 -104 -81 -63 -6
-99 15 -130 75 -34 68 -85 80 -105 26 -15 -39 13 -103 65 -147 51 -45 200 -54
282 -18 125 54 146 230 35 292 -18 10 -79 32 -135 48 -122 37 -132 45 -128
102 2 38 100 62 153 37 13 -5 36 -30 52 -55 31 -49 61 -57 91 -24 38 42 -5
122 -85 156 -46 20 -134 24 -190 9z"/>
<path d="M3168 1139 c-144 -48 -160 -216 -27 -284 14 -8 61 -23 105 -35 91
-23 128 -46 132 -83 7 -60 -56 -104 -132 -92 -52 8 -68 20 -95 72 -27 53 -54
70 -87 52 -41 -21 -25 -107 27 -156 57 -52 176 -71 276 -44 83 23 135 99 128
186 -7 86 -56 126 -201 165 -46 12 -95 31 -109 42 -57 44 -11 108 77 108 43 0
54 -4 78 -31 16 -16 32 -39 35 -49 8 -24 52 -37 74 -23 24 15 25 73 2 109 -42
68 -179 98 -283 63z"/>
<path d="M3818 1141 c-22 -18 -22 -21 -22 -284 0 -292 1 -297 59 -297 58 0 59
6 59 296 0 223 -2 266 -15 279 -23 23 -56 26 -81 6z"/>
<path d="M4410 1145 c-131 -34 -203 -148 -195 -308 3 -63 9 -91 34 -140 49
-99 127 -141 258 -139 119 2 195 48 244 149 33 65 33 223 2 294 -54 120 -199
182 -343 144z m177 -113 c43 -30 66 -85 69 -163 4 -81 -11 -130 -48 -170 -72
-75 -184 -65 -240 22 -66 101 -36 277 54 323 44 22 125 17 165 -12z"/>
<path d="M5114 1148 c-12 -5 -26 -20 -31 -32 -5 -11 -9 -134 -8 -272 0 -273 2
-284 55 -284 50 0 55 17 56 209 1 97 2 178 3 181 1 3 23 -29 49 -70 143 -222
203 -307 224 -316 26 -12 77 -2 89 18 15 22 11 532 -3 551 -17 23 -52 29 -75
12 -16 -12 -18 -33 -21 -205 l-3 -191 -129 196 c-91 136 -137 198 -155 205
-15 6 -27 10 -28 9 -1 0 -12 -5 -23 -11z"/>
<path d="M74 1139 c-12 -4 -25 -12 -28 -18 -3 -5 -6 -125 -7 -267 0 -222 2
-259 16 -273 13 -13 41 -16 173 -15 179 1 213 10 257 68 23 31 28 47 29 96 0
53 -3 63 -30 91 -16 17 -40 35 -53 40 l-23 9 26 21 c57 45 71 115 35 179 -34
60 -71 72 -234 75 -77 1 -150 -1 -161 -6z m274 -100 c12 -8 23 -21 23 -29 8
-82 -21 -102 -150 -103 l-66 0 -1 76 0 75 86 -3 c50 -2 96 -9 108 -16z m12
-234 c19 -10 31 -24 32 -38 0 -12 2 -29 3 -37 5 -49 -35 -72 -134 -76 -111 -5
-108 -7 -107 86 l0 80 89 0 c59 0 98 -5 117 -15z"/>
<path d="M1623 1137 c-12 -5 -24 -19 -27 -31 -3 -11 -6 -129 -6 -262 0 -190 3
-244 14 -259 13 -18 29 -19 206 -20 170 -1 195 1 214 16 20 17 20 20 6 46 -17
31 0 29 -285 32 l-40 1 3 80 c2 44 7 80 10 81 4 0 62 1 129 1 134 1 165 11
158 50 -8 39 -30 43 -218 38 l-78 -1 3 73 3 73 141 0 c147 0 174 7 174 45 0
39 -25 45 -210 46 -97 0 -186 -4 -197 -9z"/>
</g>
</svg>
